<svg xmlns="http://www.w3.org/2000/svg" width="448" height="512" viewBox="0 0 448 512"><path d="m339.5 192-67.6 0-47.9 70.5L176.1 192 108.5 192 189.6 313.2 98.1 448 224 448l0-45.8-25.1 0L224 364.7 279.7 448 349.9 448 258.4 313.2 339.5 192Z" fill="#1E6D41"/><path fill="#434440" d="M426.9 114.5C415.8 99.4 400.3 81.7 383.3 64.7 366.3 47.7 348.6 32.2 333.5 21.1 307.7 2.2 295.2 0 288 0L40 0C17.9 0 0 17.9 0 40l0 432c0 22.1 17.9 40 40 40l368 0c22.1 0 40-17.9 40-40l0-312c0-7.2-2.2-19.7-21.1-45.5l0 0zM360.7 87.3c15.4 15.4 27.4 29.2 36.3 40.7L320 128 320 51c11.5 8.9 25.3 20.9 40.7 36.3l0 0zM416 472c0 4.3-3.7 8-8 8l-368 0c-4.3 0-8-3.7-8-8L32 40c0-4.3 3.7-8 8-8 0 0 248 0 248 0l0 112c0 8.8 7.2 16 16 16l112 0 0 312z"/></svg>